<?xml version="1.0" encoding="UTF-8" standalone="no"?>
<!DOCTYPE svg PUBLIC "-//W3C//DTD SVG 1.1//EN"
 "http://www.w3.org/Graphics/SVG/1.1/DTD/svg11.dtd">
<!-- Generated by graphviz version 2.43.0 (0)
 -->
<!-- Pages: 1 -->
<svg width="752pt" height="365pt"
 viewBox="0.00 0.00 751.57 365.00" xmlns="http://www.w3.org/2000/svg" xmlns:xlink="http://www.w3.org/1999/xlink">
<g id="graph0" class="graph" transform="scale(1 1) rotate(0) translate(4 361)">
<polygon fill="white" stroke="transparent" points="-4,4 -4,-361 747.57,-361 747.57,4 -4,4"/>
<g id="clust1" class="cluster">
<title>cluster_Service</title>
<polygon fill="none" stroke="black" points="42.57,-187 42.57,-349 232.57,-349 232.57,-187 42.57,-187"/>
<text text-anchor="middle" x="137.57" y="-333.8" font-family="Times,serif" font-size="14.00">Service</text>
</g>
<g id="clust2" class="cluster">
<title>cluster_Vendor</title>
<polygon fill="none" stroke="black" points="417.57,-79 417.57,-154 735.57,-154 735.57,-79 417.57,-79"/>
<text text-anchor="middle" x="576.57" y="-138.8" font-family="Times,serif" font-size="14.00">Vendor</text>
</g>
<!-- Service -->
<g id="node1" class="node">
<title>Service</title>
<ellipse fill="none" stroke="black" cx="137.57" cy="-300" rx="45.49" ry="18"/>
<text text-anchor="middle" x="137.57" y="-296.3" font-family="Times,serif" font-size="14.00">Service</text>
</g>
<!-- ServiceInterface -->
<g id="node2" class="node">
<title>ServiceInterface</title>
<ellipse fill="none" stroke="black" cx="137.57" cy="-213" rx="87.18" ry="18"/>
<text text-anchor="middle" x="137.57" y="-209.3" font-family="Times,serif" font-size="14.00">ServiceInterface</text>
</g>
<!-- Service&#45;&gt;ServiceInterface -->
<g id="edge5" class="edge">
<title>Service&#45;&gt;ServiceInterface</title>
<path fill="none" stroke="black" d="M137.57,-281.8C137.57,-270.16 137.57,-254.55 137.57,-241.24"/>
<polygon fill="black" stroke="black" points="141.07,-241.18 137.57,-231.18 134.07,-241.18 141.07,-241.18"/>
<text text-anchor="middle" x="142.57" y="-252.8" font-family="Times,serif" font-size="14.00">2</text>
</g>
<!-- Doctrine -->
<g id="node3" class="node">
<title>Doctrine</title>
<ellipse fill="none" stroke="black" cx="476.57" cy="-105" rx="50.89" ry="18"/>
<text text-anchor="middle" x="476.57" y="-101.3" font-family="Times,serif" font-size="14.00">Doctrine</text>
</g>
<!-- Service&#45;&gt;Doctrine -->
<g id="edge3" class="edge">
<title>Service&#45;&gt;Doctrine</title>
<path fill="none" stroke="black" d="M182.76,-297.87C274.04,-294.54 475.31,-281.5 517.57,-231 541.91,-201.92 517.43,-157.98 497.22,-130.69"/>
<polygon fill="black" stroke="black" points="499.75,-128.24 490.88,-122.45 494.21,-132.51 499.75,-128.24"/>
<text text-anchor="middle" x="532.57" y="-209.3" font-family="Times,serif" font-size="14.00">7</text>
</g>
<!-- Guzzle -->
<g id="node4" class="node">
<title>Guzzle</title>
<ellipse fill="none" stroke="black" cx="587.57" cy="-105" rx="42.49" ry="18"/>
<text text-anchor="middle" x="587.57" y="-101.3" font-family="Times,serif" font-size="14.00">Guzzle</text>
</g>
<!-- Service&#45;&gt;Guzzle -->
<g id="edge7" class="edge">
<title>Service&#45;&gt;Guzzle</title>
<path fill="none" stroke="black" d="M182.65,-296.93C263.83,-292.81 431.3,-282.33 486.57,-264 513.63,-255.03 523.39,-252.96 541.57,-231 565.26,-202.38 577.34,-160.45 583.04,-133.18"/>
<polygon fill="black" stroke="black" points="586.52,-133.65 584.99,-123.17 579.64,-132.32 586.52,-133.65"/>
<text text-anchor="middle" x="576.07" y="-209.3" font-family="Times,serif" font-size="14.00">11</text>
</g>
<!-- Sofort -->
<g id="node5" class="node">
<title>Sofort</title>
<ellipse fill="none" stroke="black" cx="687.57" cy="-105" rx="39.79" ry="18"/>
<text text-anchor="middle" x="687.57" y="-101.3" font-family="Times,serif" font-size="14.00">Sofort</text>
</g>
<!-- Service&#45;&gt;Sofort -->
<g id="edge6" class="edge">
<title>Service&#45;&gt;Sofort</title>
<path fill="none" stroke="black" d="M183.32,-299.8C255.76,-299.97 400.72,-295.77 518.57,-264 552.17,-254.94 562.31,-252.62 589.57,-231 625.29,-202.67 655.74,-158.81 672.84,-131.28"/>
<polygon fill="black" stroke="black" points="675.9,-132.98 678.11,-122.62 669.92,-129.34 675.9,-132.98"/>
<text text-anchor="middle" x="636.57" y="-209.3" font-family="Times,serif" font-size="14.00">5</text>
</g>
<!-- Domain -->
<g id="node6" class="node">
<title>Domain</title>
<ellipse fill="none" stroke="black" cx="229.57" cy="-105" rx="46.29" ry="18"/>
<text text-anchor="middle" x="229.57" y="-101.3" font-family="Times,serif" font-size="14.00">Domain</text>
</g>
<!-- Service&#45;&gt;Domain -->
<g id="edge1" class="edge">
<title>Service&#45;&gt;Domain</title>
<path fill="none" stroke="black" d="M101.97,-288.62C74.87,-278.64 39.46,-260.62 22.57,-231 12.88,-214.01 11.55,-203.15 22.57,-187 56.39,-137.45 125.46,-118.21 174.5,-110.74"/>
<polygon fill="black" stroke="black" points="175.22,-114.17 184.64,-109.32 174.25,-107.24 175.22,-114.17"/>
<text text-anchor="middle" x="32.07" y="-209.3" font-family="Times,serif" font-size="14.00">79</text>
</g>
<!-- DomainLibrary -->
<g id="node7" class="node">
<title>DomainLibrary</title>
<ellipse fill="none" stroke="black" cx="290.57" cy="-18" rx="80.69" ry="18"/>
<text text-anchor="middle" x="290.57" y="-14.3" font-family="Times,serif" font-size="14.00">DomainLibrary</text>
</g>
<!-- Service&#45;&gt;DomainLibrary -->
<g id="edge2" class="edge">
<title>Service&#45;&gt;DomainLibrary</title>
<path fill="none" stroke="black" d="M96.83,-291.82C76.3,-286.67 51.94,-278.08 33.57,-264 -2.91,-236.05 -10.96,-198.8 16.57,-162 68.59,-92.46 164.34,-53.69 227.75,-34.58"/>
<polygon fill="black" stroke="black" points="229.02,-37.86 237.63,-31.68 227.05,-31.14 229.02,-37.86"/>
<text text-anchor="middle" x="21.57" y="-165.8" font-family="Times,serif" font-size="14.00">8</text>
</g>
<!-- DataAccess -->
<g id="node8" class="node">
<title>DataAccess</title>
<ellipse fill="none" stroke="black" cx="444.57" cy="-213" rx="63.89" ry="18"/>
<text text-anchor="middle" x="444.57" y="-209.3" font-family="Times,serif" font-size="14.00">DataAccess</text>
</g>
<!-- Service&#45;&gt;DataAccess -->
<g id="edge4" class="edge">
<title>Service&#45;&gt;DataAccess</title>
<path fill="none" stroke="black" d="M173.69,-289C227.4,-274.13 328.67,-246.09 391.02,-228.83"/>
<polygon fill="black" stroke="black" points="391.98,-232.19 400.68,-226.15 390.11,-225.45 391.98,-232.19"/>
<text text-anchor="middle" x="313.57" y="-252.8" font-family="Times,serif" font-size="14.00">3</text>
</g>
<!-- UseCase -->
<g id="node9" class="node">
<title>UseCase</title>
<ellipse fill="none" stroke="black" cx="311.57" cy="-213" rx="51.19" ry="18"/>
<text text-anchor="middle" x="311.57" y="-209.3" font-family="Times,serif" font-size="14.00">UseCase</text>
</g>
<!-- Service&#45;&gt;UseCase -->
<g id="edge8" class="edge">
<title>Service&#45;&gt;UseCase</title>
<path fill="none" stroke="black" d="M165.14,-285.53C194.45,-271.22 240.98,-248.48 273.71,-232.49"/>
<polygon fill="black" stroke="black" points="275.52,-235.5 282.97,-227.97 272.45,-229.22 275.52,-235.5"/>
<text text-anchor="middle" x="244.07" y="-252.8" font-family="Times,serif" font-size="14.00">28</text>
</g>
<!-- ServiceInterface&#45;&gt;Domain -->
<g id="edge9" class="edge">
<title>ServiceInterface&#45;&gt;Domain</title>
<path fill="none" stroke="black" d="M152.35,-194.97C167.62,-177.38 191.57,-149.78 208.75,-129.98"/>
<polygon fill="black" stroke="black" points="211.52,-132.14 215.43,-122.29 206.23,-127.55 211.52,-132.14"/>
<text text-anchor="middle" x="186.57" y="-165.8" font-family="Times,serif" font-size="14.00">3</text>
</g>
<!-- Domain&#45;&gt;DomainLibrary -->
<g id="edge10" class="edge">
<title>Domain&#45;&gt;DomainLibrary</title>
<path fill="none" stroke="black" d="M241.62,-87.21C250.42,-74.95 262.5,-58.11 272.46,-44.24"/>
<polygon fill="black" stroke="black" points="275.35,-46.21 278.33,-36.05 269.66,-42.13 275.35,-46.21"/>
<text text-anchor="middle" x="273.07" y="-57.8" font-family="Times,serif" font-size="14.00">81</text>
</g>
<!-- DataAccess&#45;&gt;Doctrine -->
<g id="edge11" class="edge">
<title>DataAccess&#45;&gt;Doctrine</title>
<path fill="none" stroke="black" d="M449.71,-194.97C454.77,-178.2 462.58,-152.34 468.48,-132.81"/>
<polygon fill="black" stroke="black" points="471.9,-133.57 471.44,-122.99 465.2,-131.55 471.9,-133.57"/>
<text text-anchor="middle" x="469.07" y="-165.8" font-family="Times,serif" font-size="14.00">38</text>
</g>
<!-- DataAccess&#45;&gt;Domain -->
<g id="edge12" class="edge">
<title>DataAccess&#45;&gt;Domain</title>
<path fill="none" stroke="black" d="M406.31,-198.4C363.92,-183.21 300.1,-159.98 289.57,-154 277.12,-146.93 264.57,-137.35 254.18,-128.61"/>
<polygon fill="black" stroke="black" points="256.21,-125.74 246.36,-121.85 251.63,-131.04 256.21,-125.74"/>
<text text-anchor="middle" x="356.07" y="-165.8" font-family="Times,serif" font-size="14.00">31</text>
</g>
<!-- DataAccess&#45;&gt;DomainLibrary -->
<g id="edge13" class="edge">
<title>DataAccess&#45;&gt;DomainLibrary</title>
<path fill="none" stroke="black" d="M431.17,-195.21C403.98,-161.13 342.21,-83.71 310.36,-43.81"/>
<polygon fill="black" stroke="black" points="313.02,-41.52 304.05,-35.89 307.55,-45.89 313.02,-41.52"/>
<text text-anchor="middle" x="402.57" y="-101.3" font-family="Times,serif" font-size="14.00">4</text>
</g>
<!-- UseCase&#45;&gt;ServiceInterface -->
<g id="edge15" class="edge">
<title>UseCase&#45;&gt;ServiceInterface</title>
<path fill="none" stroke="black" d="M260.01,-213C252.02,-213 243.56,-213 234.96,-213"/>
<polygon fill="black" stroke="black" points="234.82,-209.5 224.82,-213 234.82,-216.5 234.82,-209.5"/>
<text text-anchor="middle" x="242.44" y="-219.8" font-family="Times,serif" font-size="14.00">6</text>
</g>
<!-- UseCase&#45;&gt;Domain -->
<g id="edge14" class="edge">
<title>UseCase&#45;&gt;Domain</title>
<path fill="none" stroke="black" d="M290.13,-196.63C283.07,-190.95 275.52,-184.15 269.57,-177 258.24,-163.4 248.43,-146.13 241.36,-132.03"/>
<polygon fill="black" stroke="black" points="244.43,-130.33 236.92,-122.86 238.13,-133.39 244.43,-130.33"/>
<text text-anchor="middle" x="283.57" y="-165.8" font-family="Times,serif" font-size="14.00">150</text>
</g>
<!-- UseCase&#45;&gt;DomainLibrary -->
<g id="edge16" class="edge">
<title>UseCase&#45;&gt;DomainLibrary</title>
<path fill="none" stroke="black" d="M309.71,-194.87C306.06,-161.32 297.94,-86.71 293.54,-46.29"/>
<polygon fill="black" stroke="black" points="296.99,-45.65 292.43,-36.09 290.03,-46.41 296.99,-45.65"/>
<text text-anchor="middle" x="309.57" y="-101.3" font-family="Times,serif" font-size="14.00">8</text>
</g>
</g>
</svg>
